<svg xmlns="http://www.w3.org/2000/svg" viewBox="0 0 32 32">
  <!-- Teal rounded rectangle background to match navbar -->
  <rect x="0" y="0" width="32" height="32" rx="8" fill="#0d9488" />
  
  <!-- White shopping bag centered -->
  <g transform="translate(4, 4)">
    <path fill="#ffffff" d="M16 8V6a4 4 0 0 0-8 0v2H3.5A1.5 1.5 0 0 0 2 9.5v11A1.5 1.5 0 0 0 3.5 22h17a1.5 1.5 0 0 0 1.5-1.5v-11A1.5 1.5 0 0 0 20.5 8H16zm-6-2a2 2 0 1 1 4 0v2h-4V6zm10 14H4v-10h4v2a1 1 0 0 0 2 0v-2h4v2a1 1 0 1 0 2 0v-2h4v10z"/>
  </g>
</svg>
